<svg id="Appraisal_icon" xmlns="http://www.w3.org/2000/svg" width="22" height="22" viewBox="0 0 22 22">
  <g id="Group_53" data-name="Group 53" transform="translate(0)">
    <g id="Group_52" data-name="Group 52">
      <path id="Path_155" data-name="Path 155" d="M21.966.472A.636.636,0,0,0,21.356,0H18.778a.645.645,0,1,0,0,1.289h1.507L17.207,4.764A19.752,19.752,0,0,1,.7,11.4.644.644,0,0,0,.59,12.681c.6.052,1.112.078,1.713.078a21.253,21.253,0,0,0,15.87-7.141l2.539-2.865v.47a.645.645,0,0,0,1.289,0V1.281Z" transform="translate(-0.001)" fill="#fff"/>
    </g>
  </g>
  <g id="Group_55" data-name="Group 55" transform="translate(0 5.576)">
    <g id="Group_54" data-name="Group 54">
      <path id="Path_156" data-name="Path 156" d="M21.355,144.908h-.687V130.417A.645.645,0,0,0,19.531,130l-.4.47a22.291,22.291,0,0,1-2.121,2.193.644.644,0,0,0-.213.479v11.764H15.512v-9.753a.644.644,0,0,0-1-.535A22.755,22.755,0,0,1,12,136.08a.644.644,0,0,0-.356.577v8.251H10.355v-7.152a.644.644,0,0,0-.861-.607,22.674,22.674,0,0,1-2.507.734.645.645,0,0,0-.5.628v6.4H5.2v-5.953a.645.645,0,0,0-.215-.481.636.636,0,0,0-.5-.159,22.477,22.477,0,0,1-2.506.144.645.645,0,0,0-.644.645v5.8H.645a.645.645,0,1,0,0,1.289H21.355a.645.645,0,1,0,0-1.289Z" transform="translate(0 -129.773)" fill="#fff"/>
    </g>
  </g>
</svg>
