<svg xmlns="http://www.w3.org/2000/svg" width="22.386" height="24.421" viewBox="0 0 22.386 24.421">
  <g id="notification_icon" transform="translate(0.001)">
    <path id="Path_140" data-name="Path 140" d="M138.7,451.053A3.822,3.822,0,0,0,142.442,448h-7.477a3.822,3.822,0,0,0,3.738,3.053Zm0,0" transform="translate(-128.529 -426.632)" fill="#176fc1"/>
    <path id="Path_141" data-name="Path 141" d="M17.31,52.842H17.3a7.131,7.131,0,0,1-7.123-7.123,7.059,7.059,0,0,1,.681-3.018c-.224-.021-.451-.034-.681-.034A7.123,7.123,0,0,0,3.052,49.79v2.837A6.823,6.823,0,0,1,.622,57.85a1.78,1.78,0,0,0-.56,1.828,1.867,1.867,0,0,0,1.83,1.306h16.56a1.865,1.865,0,0,0,1.86-1.411A1.784,1.784,0,0,0,19.7,57.83a6.771,6.771,0,0,1-2.4-4.988Zm0,0" transform="translate(0 -40.632)" fill="#176fc1"/>
    <path id="Path_142" data-name="Path 142" d="M266.187,5.088A5.088,5.088,0,1,1,261.1,0,5.087,5.087,0,0,1,266.187,5.088Zm0,0" transform="translate(-243.802)" fill="red"/>
  </g>
</svg>
