<svg id="Performance_icon" xmlns="http://www.w3.org/2000/svg" width="22" height="22" viewBox="0 0 22 22">
  <path id="Path_151" data-name="Path 151" d="M8.479,0H1.6A1.606,1.606,0,0,0,0,1.6V5.729a1.606,1.606,0,0,0,1.6,1.6H8.479a1.606,1.606,0,0,0,1.6-1.6V1.6A1.606,1.606,0,0,0,8.479,0Zm0,0" fill="#fff"/>
  <path id="Path_152" data-name="Path 152" d="M8.479,213.332H1.6a1.606,1.606,0,0,0-1.6,1.6v9.625a1.606,1.606,0,0,0,1.6,1.6H8.479a1.606,1.606,0,0,0,1.6-1.6v-9.625A1.606,1.606,0,0,0,8.479,213.332Zm0,0" transform="translate(0 -204.165)" fill="#fff"/>
  <path id="Path_153" data-name="Path 153" d="M285.811,341.332h-6.875a1.606,1.606,0,0,0-1.6,1.6v4.125a1.606,1.606,0,0,0,1.6,1.6h6.875a1.606,1.606,0,0,0,1.6-1.6v-4.125A1.606,1.606,0,0,0,285.811,341.332Zm0,0" transform="translate(-265.415 -326.665)" fill="#fff"/>
  <path id="Path_154" data-name="Path 154" d="M285.811,0h-6.875a1.606,1.606,0,0,0-1.6,1.6v9.625a1.606,1.606,0,0,0,1.6,1.6h6.875a1.606,1.606,0,0,0,1.6-1.6V1.6A1.606,1.606,0,0,0,285.811,0Zm0,0" transform="translate(-265.415)" fill="#fff"/>
</svg>
