<svg id="Role_Clarity_icon" xmlns="http://www.w3.org/2000/svg" width="22.237" height="22.237" viewBox="0 0 22.237 22.237">
  <g id="Group_38" data-name="Group 38" transform="translate(7.861 6.558)">
    <g id="Group_37" data-name="Group 37">
      <path id="Path_145" data-name="Path 145" d="M184.257,151a3.257,3.257,0,1,0,3.257,3.257A3.261,3.261,0,0,0,184.257,151Z" transform="translate(-181 -151)" fill="#fff"/>
    </g>
  </g>
  <g id="Group_40" data-name="Group 40">
    <g id="Group_39" data-name="Group 39">
      <path id="Path_146" data-name="Path 146" d="M21.791,9.2,20.617,8.82a9.666,9.666,0,0,0-1.158-2.792l.534-1.068a.651.651,0,0,0-.122-.752L18.028,2.366a.651.651,0,0,0-.752-.122l-1.068.534a9.68,9.68,0,0,0-2.563-1.093L13,.36A.652.652,0,0,0,12.421,0H9.815a.652.652,0,0,0-.583.36L8.592,1.685A9.68,9.68,0,0,0,6.029,2.778L4.961,2.244a.647.647,0,0,0-.752.122L2.366,4.209a.651.651,0,0,0-.122.752l.534,1.068A9.68,9.68,0,0,0,1.685,8.592L.36,9.233A.652.652,0,0,0,0,9.815v2.606A.652.652,0,0,0,.36,13l1.325.641A9.71,9.71,0,0,0,2.663,16l-.454,1.362a.653.653,0,0,0,.158.667L4.209,19.87a.653.653,0,0,0,.667.158l1.362-.454A9.675,9.675,0,0,0,8.82,20.616L9.2,21.791a.651.651,0,0,0,.618.445h2.606a.651.651,0,0,0,.618-.445l.377-1.175A9.675,9.675,0,0,0,16,19.574l1.362.454a.652.652,0,0,0,.667-.158l1.842-1.842a.653.653,0,0,0,.158-.667L19.574,16a9.675,9.675,0,0,0,1.042-2.583l1.175-.377a.651.651,0,0,0,.445-.618V9.815A.651.651,0,0,0,21.791,9.2ZM11.118,18.284a7.166,7.166,0,1,1,7.166-7.166A7.174,7.174,0,0,1,11.118,18.284Z" fill="#fff"/>
    </g>
  </g>
  <g id="Group_42" data-name="Group 42" transform="translate(6.773 13.083)">
    <g id="Group_41" data-name="Group 41">
      <path id="Path_147" data-name="Path 147" d="M163.468,301.247a4.53,4.53,0,0,1-6.337,0,4.6,4.6,0,0,0-1.177,1.935,5.791,5.791,0,0,0,8.69,0A4.6,4.6,0,0,0,163.468,301.247Z" transform="translate(-155.955 -301.247)" fill="#fff"/>
    </g>
  </g>
</svg>
