<svg xmlns="http://www.w3.org/2000/svg" width="21.427" height="21.427" viewBox="0 0 21.427 21.427">
  <g id="Target_Setting_icon" transform="translate(0 -0.001)">
    <g id="Group_45" data-name="Group 45" transform="translate(0 0.001)">
      <g id="Group_44" data-name="Group 44" transform="translate(0 0)">
        <path id="Path_148" data-name="Path 148" d="M11.166,10.283s0-.009-.008-.012L7.575,6.689V4.437a.627.627,0,0,0-.184-.444L3.625.185A.628.628,0,0,0,2.553.629V2.512H.628A.628.628,0,0,0,.184,3.584L3.993,7.392a.627.627,0,0,0,.444.184H6.687l3.583,3.583s.008,0,.012.008a.625.625,0,0,0,.884-.884Z" transform="translate(0 -0.001)" fill="#fff"/>
      </g>
    </g>
    <g id="Group_47" data-name="Group 47" transform="translate(0 0.001)">
      <g id="Group_46" data-name="Group 46">
        <path id="Path_149" data-name="Path 149" d="M10.717,0A10.62,10.62,0,0,0,6.224,1.049L8.15,2.975A8.181,8.181,0,1,1,2.976,8.149L1.05,6.223A10.621,10.621,0,0,0,0,10.716,10.714,10.714,0,1,0,10.717,0Z" transform="translate(-0.003 -0.002)" fill="#fff"/>
      </g>
    </g>
    <g id="Group_49" data-name="Group 49" transform="translate(5.064 5.065)">
      <g id="Group_48" data-name="Group 48">
        <path id="Path_150" data-name="Path 150" d="M126.652,121a5.583,5.583,0,0,0-1.883.347v.756l1.451,1.451a3.09,3.09,0,0,1,.432-.044,3.139,3.139,0,1,1-3.139,3.139,3.088,3.088,0,0,1,.044-.432l-1.451-1.451h-.756a5.584,5.584,0,0,0-.347,1.883,5.65,5.65,0,1,0,5.65-5.65Z" transform="translate(-121.002 -121.001)" fill="#fff"/>
      </g>
    </g>
  </g>
</svg>
